<?xml version="1.0" encoding="utf-8"?>
<!-- Generator: Adobe Illustrator 19.0.0, SVG Export Plug-In . SVG Version: 6.00 Build 0)  -->
<svg version="1.1" xmlns="http://www.w3.org/2000/svg" xmlns:xlink="http://www.w3.org/1999/xlink" x="0px" y="0px"
	 viewBox="0 0 841.9 285.7" style="enable-background:new 0 0 841.9 285.7;" xml:space="preserve">
<style type="text/css">
	.st0{display:none;}
	.st1{display:inline;fill:#262323;}
	.st2{fill:#302B2C;stroke:#332D2F;stroke-width:5;stroke-miterlimit:10;}
	.st3{fill:#58ACB9;}
	.st4{fill:#57BB89;}
	.st5{fill:#F05454;}
	.st6{display:inline;fill:#FFFFFF;stroke:#FFFFFF;stroke-width:5;stroke-miterlimit:10;}
</style>
<g id="Calque_2" class="st0">
	<rect id="XMLID_29_" class="st1" width="841.9" height="285.7"/>
</g>
<g id="Calque_1">
	<g id="XMLID_1_">
		<path id="XMLID_17_" class="st2" d="M189.7,158.4h-2.3v-4.6h2.3h66.6c1.4,0,2.3,0.9,2.3,2.3c0,43.7-31.2,78.6-69.2,78.6
			c-38.2,0-69.6-34.9-69.6-78.6c0-43.7,31.5-78.6,69.6-78.6c26.1-0.2,50.7,16,59.7,33.5l1.6,3.5h-5.1l-0.7-1.2
			c-8.6-16.7-31.2-31.5-55.5-31.2c-35.9,0-65,33.1-65,74c0,40.9,29.1,74,65,74c35.6,0,64.5-33.1,64.5-71.7H189.7z"/>
	</g>
	<g id="XMLID_2_">
		<path id="XMLID_9_" class="st2" d="M410.9,177.2c0-31,21.7-55.5,48.1-55.5c18.1,0,34.1,12.5,41.6,31.2V124v-2.3h4.6v2.3v53.2v53.2
			v2.3h-4.6v-2.3v-28.9c-7.6,18.6-23.5,31.2-41.6,31.2C432.6,232.7,410.9,208.2,410.9,177.2z M415.5,177.2
			c0,28.2,19.4,50.9,43.5,50.9c22.9,0,41.6-22.9,41.6-50.9c0-28-18.7-50.9-41.6-50.9C434.9,126.3,415.5,149,415.5,177.2z"/>
		<path id="XMLID_12_" class="st2" d="M630.1,230.4l0.2,2.5H626l-0.2-2.3l-0.2-62.4c0-22.9-17.3-41.9-39.3-41.9s-39.3,19-39.3,41.9
			v2.3v59.9v2.3h-4.6v-2.3v-59.9v-2.3V124v-2.3h4.6v2.3v23.4c7.2-15.2,22.1-25.7,39.3-25.7c24.3,0,43.9,20.8,43.9,46.5V230.4z"/>
	</g>
	<rect id="XMLID_30_" x="274.8" y="135.6" class="st3" width="18.9" height="96.9"/>
	<rect id="XMLID_31_" x="303.5" y="74.8" class="st4" width="29.4" height="157.9"/>
	<rect id="XMLID_5_" x="303.5" y="74.8" class="st3" width="29.4" height="157.9"/>
	<rect id="XMLID_32_" x="339.5" y="74.8" class="st5" width="29.4" height="157.9"/>
	<rect id="XMLID_33_" x="378.3" y="121.8" class="st5" width="18.9" height="111"/>
	<g id="XMLID_34_">
		<g id="XMLID_68_">
			<path id="XMLID_69_" class="st3" d="M291.4,117.5l-5.4-3.1v6.2c0,2.5-1.4,2.9-2.2,2.9s-2.2-0.3-2.2-2.9v-6.2l-5.4,3.1
				c-0.2,0.1-1,0.5-1.7,0.5c-1.2,0-2.1-1.2-2.1-2.2c0-0.9,0.6-1.6,1.6-2.2l5.4-3.2l-5.4-3c-1-0.6-1.6-1.4-1.6-2.2
				c0-0.4,0.4-2.2,2.1-2.2c0.7,0,1.6,0.4,1.7,0.5l5.4,3.1v-6.2c0-2.1,1-2.9,2.3-2.9c1.7,0,2.2,1.5,2.2,2.9v6.2l5.4-3.1
				c0.2-0.1,1-0.5,1.7-0.5c1.4,0,2.2,1.3,2.2,2.2c0,1-0.7,1.6-1.6,2.2l-5.4,3l5.4,3.2c1,0.6,1.6,1.3,1.6,2.2c0,0.4-0.5,2.2-2.2,2.2
				C292.4,118,291.5,117.5,291.4,117.5z"/>
		</g>
	</g>
</g>
<g id="Calque_3">
	<g id="XMLID_7_" class="st0">
		<path id="XMLID_27_" class="st6" d="M189.7,158.4h-2.3v-4.6h2.3h66.6c1.4,0,2.3,0.9,2.3,2.3c0,43.7-31.2,78.6-69.2,78.6
			c-38.2,0-69.6-34.9-69.6-78.6c0-43.7,31.5-78.6,69.6-78.6c26.1-0.2,50.7,16,59.7,33.5l1.6,3.5h-5.1l-0.7-1.2
			c-8.6-16.7-31.2-31.5-55.5-31.2c-35.9,0-65,33.1-65,74c0,40.9,29.1,74,65,74c35.6,0,64.5-33.1,64.5-71.7H189.7z"/>
	</g>
	<g id="XMLID_6_" class="st0">
		<path id="XMLID_22_" class="st6" d="M410.9,177.2c0-31,21.7-55.5,48.1-55.5c18.1,0,34.1,12.5,41.6,31.2V124v-2.3h4.6v2.3v53.2
			v53.2v2.3h-4.6v-2.3v-28.9c-7.6,18.6-23.5,31.2-41.6,31.2C432.6,232.7,410.9,208.2,410.9,177.2z M415.5,177.2
			c0,28.2,19.4,50.9,43.5,50.9c22.9,0,41.6-22.9,41.6-50.9c0-28-18.7-50.9-41.6-50.9C434.9,126.3,415.5,149,415.5,177.2z"/>
		<path id="XMLID_25_" class="st6" d="M630.1,230.4l0.2,2.5H626l-0.2-2.3l-0.2-62.4c0-22.9-17.3-41.9-39.3-41.9s-39.3,19-39.3,41.9
			v2.3v59.9v2.3h-4.6v-2.3v-59.9v-2.3V124v-2.3h4.6v2.3v23.4c7.2-15.2,22.1-25.7,39.3-25.7c24.3,0,43.9,20.8,43.9,46.5V230.4z"/>
	</g>
	<g id="XMLID_3_">
	</g>
	<g id="XMLID_35_">
	</g>
	<g id="XMLID_38_">
	</g>
	<g id="XMLID_41_">
	</g>
	<g id="XMLID_42_">
	</g>
	<g id="XMLID_43_">
	</g>
</g>
</svg>
