<?xml version="1.0" encoding="utf-8"?>
<!-- Generator: Adobe Illustrator 19.0.0, SVG Export Plug-In . SVG Version: 6.00 Build 0)  -->
<svg version="1.1" xmlns="http://www.w3.org/2000/svg" xmlns:xlink="http://www.w3.org/1999/xlink" x="0px" y="0px"
	 viewBox="0 0 230.7 214" style="enable-background:new 0 0 230.7 214;" xml:space="preserve">
<style type="text/css">
	.st0{display:none;}
	.st1{display:inline;fill:#262323;}
	.st2{display:inline;fill:#302B2C;stroke:#332D2F;stroke-width:5;stroke-miterlimit:10;}
	.st3{fill:#58ACB9;}
	.st4{fill:#57BB89;}
	.st5{fill:#F05454;}
	.st6{display:inline;fill:#FFFFFF;stroke:#FFFFFF;stroke-width:5;stroke-miterlimit:10;}
</style>
<g id="Calque_2" class="st0">
	<rect id="XMLID_29_" x="-219.3" y="-40.3" class="st1" width="841.9" height="285.7"/>
</g>
<g id="Calque_1">
	<g id="XMLID_1_" class="st0">
		<path id="XMLID_82_" class="st2" d="M-29.6,118.1h-2.3v-4.6h2.3H37c1.4,0,2.3,0.9,2.3,2.3c0,43.7-31.2,78.6-69.2,78.6
			c-38.2,0-69.6-34.9-69.6-78.6c0-43.7,31.5-78.6,69.6-78.6c26.1-0.2,50.7,16,59.7,33.5l1.6,3.5h-5.1L25.7,73
			C17.1,56.4-5.6,41.6-29.8,41.8c-35.9,0-65,33.1-65,74c0,40.9,29.1,74,65,74c35.6,0,64.5-33.1,64.5-71.7H-29.6z"/>
	</g>
	<g id="XMLID_2_" class="st0">
		<path id="XMLID_26_" class="st2" d="M191.5,136.9c0-31,21.7-55.5,48.1-55.5c18.1,0,34.1,12.5,41.6,31.2V83.7v-2.3h4.6v2.3v53.2
			v53.2v2.3h-4.6v-2.3v-28.9c-7.6,18.6-23.5,31.2-41.6,31.2C213.3,192.4,191.5,167.9,191.5,136.9z M196.2,136.9
			c0,28.2,19.4,50.9,43.5,50.9c22.9,0,41.6-22.9,41.6-50.9c0-28-18.7-50.9-41.6-50.9C215.6,86,196.2,108.7,196.2,136.9z"/>
		<path id="XMLID_80_" class="st2" d="M410.8,190.1l0.2,2.5h-4.4l-0.2-2.3l-0.2-62.4c0-22.9-17.3-41.9-39.3-41.9s-39.3,19-39.3,41.9
			v2.3v59.9v2.3h-4.6v-2.3v-59.9v-2.3V83.7v-2.3h4.6v2.3v23.4c7.2-15.2,22.1-25.7,39.3-25.7c24.3,0,43.9,20.8,43.9,46.5V190.1z"/>
	</g>
	<rect id="XMLID_30_" x="55.4" y="95.3" class="st3" width="18.9" height="96.9"/>
	<rect id="XMLID_31_" x="84.2" y="34.5" class="st4" width="29.4" height="157.9"/>
	<rect id="XMLID_5_" x="84.2" y="34.5" class="st3" width="29.4" height="157.9"/>
	<rect id="XMLID_32_" x="120.1" y="34.5" class="st5" width="29.4" height="157.9"/>
	<rect id="XMLID_33_" x="158.9" y="81.5" class="st5" width="18.9" height="111"/>
	<g id="XMLID_34_">
		<g id="XMLID_120_">
			<path id="XMLID_121_" class="st3" d="M72,77.2L66.6,74v6.2c0,2.5-1.4,2.9-2.2,2.9c-0.9,0-2.2-0.3-2.2-2.9V74l-5.4,3.1
				c-0.2,0.1-1,0.5-1.7,0.5c-1.2,0-2.1-1.2-2.1-2.2c0-0.9,0.6-1.6,1.6-2.2l5.4-3.2l-5.4-3c-1-0.6-1.6-1.4-1.6-2.2
				c0-0.4,0.4-2.2,2.1-2.2c0.7,0,1.6,0.4,1.7,0.5l5.4,3.1V60c0-2.1,1-2.9,2.3-2.9c1.7,0,2.2,1.5,2.2,2.9v6.2l5.4-3.1
				c0.2-0.1,1-0.5,1.7-0.5c1.4,0,2.2,1.3,2.2,2.2c0,1-0.7,1.6-1.6,2.2l-5.4,3l5.4,3.2c1,0.6,1.6,1.3,1.6,2.2c0,0.4-0.5,2.2-2.2,2.2
				C73.1,77.7,72.2,77.2,72,77.2z"/>
		</g>
	</g>
</g>
<g id="Calque_3">
	<g id="XMLID_7_" class="st0">
		<path id="XMLID_89_" class="st6" d="M-29.6,118.1h-2.3v-4.6h2.3H37c1.4,0,2.3,0.9,2.3,2.3c0,43.7-31.2,78.6-69.2,78.6
			c-38.2,0-69.6-34.9-69.6-78.6c0-43.7,31.5-78.6,69.6-78.6c26.1-0.2,50.7,16,59.7,33.5l1.6,3.5h-5.1L25.7,73
			C17.1,56.4-5.6,41.6-29.8,41.8c-35.9,0-65,33.1-65,74c0,40.9,29.1,74,65,74c35.6,0,64.5-33.1,64.5-71.7H-29.6z"/>
	</g>
	<g id="XMLID_6_" class="st0">
		<path id="XMLID_84_" class="st6" d="M191.5,136.9c0-31,21.7-55.5,48.1-55.5c18.1,0,34.1,12.5,41.6,31.2V83.7v-2.3h4.6v2.3v53.2
			v53.2v2.3h-4.6v-2.3v-28.9c-7.6,18.6-23.5,31.2-41.6,31.2C213.3,192.4,191.5,167.9,191.5,136.9z M196.2,136.9
			c0,28.2,19.4,50.9,43.5,50.9c22.9,0,41.6-22.9,41.6-50.9c0-28-18.7-50.9-41.6-50.9C215.6,86,196.2,108.7,196.2,136.9z"/>
		<path id="XMLID_87_" class="st6" d="M410.8,190.1l0.2,2.5h-4.4l-0.2-2.3l-0.2-62.4c0-22.9-17.3-41.9-39.3-41.9s-39.3,19-39.3,41.9
			v2.3v59.9v2.3h-4.6v-2.3v-59.9v-2.3V83.7v-2.3h4.6v2.3v23.4c7.2-15.2,22.1-25.7,39.3-25.7c24.3,0,43.9,20.8,43.9,46.5V190.1z"/>
	</g>
	<g id="XMLID_23_">
	</g>
	<g id="XMLID_91_">
	</g>
	<g id="XMLID_92_">
	</g>
	<g id="XMLID_93_">
	</g>
	<g id="XMLID_94_">
	</g>
	<g id="XMLID_95_">
	</g>
</g>
</svg>
